<?xml version="1.0" encoding="UTF-8" standalone="no"?>
<!DOCTYPE svg PUBLIC "-//W3C//DTD SVG 1.1//EN" "http://www.w3.org/Graphics/SVG/1.1/DTD/svg11.dtd">
<svg width="100%" height="100%" viewBox="0 0 600 600" version="1.1" xmlns="http://www.w3.org/2000/svg" xmlns:xlink="http://www.w3.org/1999/xlink" xml:space="preserve" xmlns:serif="http://www.serif.com/" style="fill-rule:evenodd;clip-rule:evenodd;stroke-linejoin:round;stroke-miterlimit:2;">
    <rect x="-0.614" y="-0.462" width="600.881" height="600.196" style="fill:white;"/>
    <g id="Bumble" transform="matrix(1,0,0,1,-99.4439,0)">
        <g id="Mouth---face" serif:id="Mouth &amp; face" transform="matrix(1,0,0,1,-4,0)">
            <path d="M640.814,320.521C481.156,467.571 323.561,469.714 159.161,320.211C138.874,310.876 143.218,320.182 147.687,346.355C148.151,349.072 146.614,360.859 147.054,363.815C147.541,367.092 141.707,355.665 141.883,359.337C142.599,374.231 152.096,400.797 161.239,423.137C333.11,579.295 486.814,566.981 638.995,420.509C651.929,402.425 661.96,379.166 663.97,365.391C664.347,362.802 658.053,368.127 658.494,365.809C660.858,353.378 665.815,343.938 664.896,336.159C663.331,322.901 667.276,315.137 640.814,320.521Z" style="fill:rgb(0,11,89);"/>
            <clipPath id="_clip1">
                <path d="M640.814,320.521C481.156,467.571 323.561,469.714 159.161,320.211C138.874,310.876 143.218,320.182 147.687,346.355C148.151,349.072 146.614,360.859 147.054,363.815C147.541,367.092 141.707,355.665 141.883,359.337C142.599,374.231 152.096,400.797 161.239,423.137C333.11,579.295 486.814,566.981 638.995,420.509C651.929,402.425 661.96,379.166 663.97,365.391C664.347,362.802 658.053,368.127 658.494,365.809C660.858,353.378 665.815,343.938 664.896,336.159C663.331,322.901 667.276,315.137 640.814,320.521Z"/>
            </clipPath>
            <g clip-path="url(#_clip1)">
                <g transform="matrix(1.45559,0,0,0.698209,-198.104,130.285)">
                    <path d="M474.657,481.873C437.453,455.438 392.407,452.934 357.631,478.594L342.352,552.243C386.457,582.526 434.938,587.454 482.835,556.536L474.657,481.873Z" style="fill:rgb(255,84,84);"/>
                </g>
                <g id="Bottom-Teeth" serif:id="Bottom Teeth">
                    <g transform="matrix(-0.285966,-0.248067,-0.219438,0.252962,376.943,363.897)">
                        <path d="M245.977,377.373C269.334,435.188 263.826,495.024 284.619,564.98C258.033,548.646 228.791,565.134 208.903,549.266C229.075,494.849 225.591,420.601 245.977,377.373Z" style="fill:rgb(176,176,176);"/>
                    </g>
                    <g transform="matrix(-0.373763,-0.0601233,-0.0531844,0.330627,483.04,362.851)">
                        <path d="M245.977,377.373C269.334,435.188 263.826,495.024 284.619,564.98C258.033,548.646 228.791,565.134 208.903,549.266C229.075,494.849 225.591,420.601 245.977,377.373Z" style="fill:rgb(176,176,176);"/>
                    </g>
                    <g transform="matrix(-0.373188,0.0635952,0.0562556,0.330118,516.309,330.554)">
                        <path d="M245.977,377.373C269.334,435.188 263.826,495.024 284.619,564.98C258.033,548.646 228.791,565.134 208.903,549.266C229.075,494.849 225.591,420.601 245.977,377.373Z" style="fill:rgb(176,176,176);"/>
                    </g>
                    <g transform="matrix(-0.336153,0.174113,0.154018,0.297357,554.22,277.716)">
                        <path d="M245.977,377.373C269.334,435.188 263.826,495.024 284.619,564.98C258.033,548.646 228.791,565.134 208.903,549.266C229.075,494.849 225.591,420.601 245.977,377.373Z" style="fill:rgb(176,176,176);"/>
                    </g>
                    <g transform="matrix(-0.297986,0.233491,0.152196,0.194236,623.368,260.125)">
                        <path d="M245.977,377.373C269.334,435.188 263.826,495.024 284.619,564.98C258.033,548.646 228.791,565.134 208.903,549.266C229.075,494.849 225.591,420.601 245.977,377.373Z" style="fill:rgb(176,176,176);"/>
                    </g>
                    <g transform="matrix(-0.285966,-0.248067,-0.219438,0.252962,457.086,420.37)">
                        <path d="M245.977,377.373C269.334,435.188 263.826,495.024 284.619,564.98C258.033,548.646 228.791,565.134 208.903,549.266C229.075,494.849 225.591,420.601 245.977,377.373Z" style="fill:rgb(176,176,176);"/>
                    </g>
                    <g transform="matrix(0.32844,0.188259,-0.108938,0.190055,205.542,322.845)">
                        <path d="M245.977,377.373C269.334,435.188 263.826,495.024 284.619,564.98C258.033,548.646 228.791,565.134 208.903,549.266C229.075,494.849 225.591,420.601 245.977,377.373Z" style="fill:rgb(176,176,176);"/>
                    </g>
                    <g transform="matrix(0.378342,-0.0130896,0.00757443,0.218932,315.737,418.289)">
                        <path d="M245.977,377.373C269.334,435.188 263.826,495.024 284.619,564.98C258.033,548.646 228.791,565.134 208.903,549.266C229.075,494.849 225.591,420.601 245.977,377.373Z" style="fill:rgb(176,176,176);"/>
                    </g>
                    <g transform="matrix(0.353917,-0.134374,0.0777574,0.204798,375.815,436.973)">
                        <path d="M245.977,377.373C269.334,435.188 263.826,495.024 284.619,564.98C258.033,548.646 228.791,565.134 208.903,549.266C229.075,494.849 225.591,420.601 245.977,377.373Z" style="fill:rgb(176,176,176);"/>
                    </g>
                    <g transform="matrix(0.296263,-0.235674,0.136376,0.171436,452.956,418.692)">
                        <path d="M245.977,377.373C269.334,435.188 263.826,495.024 284.619,564.98C258.033,548.646 228.791,565.134 208.903,549.266C229.075,494.849 225.591,420.601 245.977,377.373Z" style="fill:rgb(176,176,176);"/>
                    </g>
                    <g transform="matrix(0.366444,0.0950413,-0.0549968,0.212047,258.324,382.862)">
                        <path d="M245.977,377.373C269.334,435.188 263.826,495.024 284.619,564.98C258.033,548.646 228.791,565.134 208.903,549.266C229.075,494.849 225.591,420.601 245.977,377.373Z" style="fill:rgb(176,176,176);"/>
                    </g>
                    <g transform="matrix(0.211822,0.179914,-0.129574,0.152553,186.81,300.047)">
                        <path d="M245.977,377.373C269.334,435.188 262.665,485.835 283.458,555.791C260.376,546.496 230.618,568.805 208.903,549.266C229.075,494.849 225.591,420.601 245.977,377.373Z" style="fill:rgb(176,176,176);"/>
                    </g>
                    <g transform="matrix(0.274834,0.0412754,-0.0297264,0.197935,287.802,408.785)">
                        <path d="M245.977,377.373C269.334,435.188 262.665,485.835 283.458,555.791C260.376,546.496 230.618,568.805 208.903,549.266C229.075,494.849 225.591,420.601 245.977,377.373Z" style="fill:rgb(176,176,176);"/>
                    </g>
                    <g transform="matrix(0.273465,-0.0495402,0.0356786,0.196949,346.308,436.984)">
                        <path d="M245.977,377.373C269.334,435.188 262.665,485.835 283.458,555.791C260.376,546.496 230.618,568.805 208.903,549.266C229.075,494.849 225.591,420.601 245.977,377.373Z" style="fill:rgb(176,176,176);"/>
                    </g>
                    <g transform="matrix(0.245433,-0.130386,0.0939035,0.17676,425.51,433.561)">
                        <path d="M245.977,377.373C269.334,435.188 262.665,485.835 283.458,555.791C260.376,546.496 230.618,568.805 208.903,549.266C229.075,494.849 225.591,420.601 245.977,377.373Z" style="fill:rgb(176,176,176);"/>
                    </g>
                    <g transform="matrix(0.216961,-0.173683,0.125086,0.156254,495.121,397.969)">
                        <path d="M245.977,377.373C269.334,435.188 262.665,485.835 283.458,555.791C260.376,546.496 230.618,568.805 208.903,549.266C229.075,494.849 225.591,420.601 245.977,377.373Z" style="fill:rgb(176,176,176);"/>
                    </g>
                    <g transform="matrix(0.211822,0.179914,-0.129574,0.152553,263.699,358.593)">
                        <path d="M245.977,377.373C269.334,435.188 262.665,485.835 283.458,555.791C260.376,546.496 230.618,568.805 208.903,549.266C229.075,494.849 225.591,420.601 245.977,377.373Z" style="fill:rgb(176,176,176);"/>
                    </g>
                    <g transform="matrix(0.312087,0.214279,-0.154323,0.224764,212.238,282.985)">
                        <path d="M245.977,377.373C269.334,435.188 262.665,485.835 283.458,555.791C260.376,546.496 230.618,568.805 208.903,549.266C229.075,494.849 225.591,420.601 245.977,377.373Z" style="fill:rgb(176,176,176);"/>
                    </g>
                    <g transform="matrix(0.378157,0.0176423,-0.0127059,0.272347,300.421,380.884)">
                        <path d="M245.977,377.373C269.334,435.188 262.665,485.835 283.458,555.791C260.376,546.496 230.618,568.805 208.903,549.266C229.075,494.849 225.591,420.601 245.977,377.373Z" style="fill:rgb(176,176,176);"/>
                    </g>
                    <g transform="matrix(0.363651,-0.105224,0.0757821,0.2619,349.257,406.504)">
                        <path d="M245.977,377.373C269.334,435.188 262.665,485.835 283.458,555.791C260.376,546.496 230.618,568.805 208.903,549.266C229.075,494.849 225.591,420.601 245.977,377.373Z" style="fill:rgb(176,176,176);"/>
                    </g>
                    <g transform="matrix(0.314403,-0.210867,0.151865,0.226432,418.388,397.746)">
                        <path d="M245.977,377.373C269.334,435.188 262.665,485.835 283.458,555.791C260.376,546.496 230.618,568.805 208.903,549.266C229.075,494.849 225.591,420.601 245.977,377.373Z" style="fill:rgb(176,176,176);"/>
                    </g>
                    <g transform="matrix(0.335624,0.17513,-0.126128,0.241715,280.866,339.861)">
                        <path d="M245.977,377.373C269.334,435.188 262.665,485.835 283.458,555.791C260.376,546.496 230.618,568.805 208.903,549.266C229.075,494.849 225.591,420.601 245.977,377.373Z" style="fill:rgb(176,176,176);"/>
                    </g>
                </g>
            </g>
            <g id="Top-Teeth" serif:id="Top Teeth">
                <g transform="matrix(-1.03808,-1.27128e-16,1.12456e-16,-0.918272,575.403,907.911)">
                    <path d="M271.512,381.544C300.706,442.218 289.297,488.849 295.125,555.542C285.769,551.776 245.834,527.747 197.674,521.893C245.055,482.954 268.183,434.826 271.512,381.544Z" style="fill:rgb(235,235,235);"/>
                </g>
                <g transform="matrix(-0.646538,-7.91781e-17,7.00401e-17,-0.571921,468.846,743.561)">
                    <path d="M275.456,355.078C304.649,415.752 287.413,507.26 293.24,573.954C283.784,568 268.048,503.006 266.817,496.755C262.389,474.282 215.083,519.136 197.674,521.893C245.055,482.954 272.126,408.359 275.456,355.078Z" style="fill:white;"/>
                </g>
                <g transform="matrix(1.03808,-1.27128e-16,-1.12456e-16,-0.918272,229.728,907.967)">
                    <path d="M271.512,381.544C300.706,442.218 287.048,489.335 292.876,556.028C283.475,552.769 248.433,528.699 200.345,522.046C247.726,483.107 268.183,434.826 271.512,381.544Z" style="fill:rgb(235,235,235);"/>
                </g>
                <g transform="matrix(-0.569643,-6.97611e-17,6.17099e-17,-0.5039,398.341,655.617)">
                    <path d="M271.512,381.544C287.606,441.235 270.161,487.411 295.125,555.542C284.051,556.71 267.378,530.374 223.538,512.392C244.516,456.034 250.956,423.461 271.512,381.544Z" style="fill:rgb(235,235,235);"/>
                </g>
                <g transform="matrix(0.569643,-6.97611e-17,-6.17099e-17,-0.5039,406.791,655.674)">
                    <path d="M271.512,381.544C283.508,436.718 264.616,487.305 291.831,557.916C280.757,559.083 263.856,533.078 220.016,515.095C246.2,471.144 255.846,435.115 271.512,381.544Z" style="fill:rgb(235,235,235);"/>
                </g>
                <g transform="matrix(-0.569643,-6.97611e-17,6.17099e-17,-0.5039,356.775,632.344)">
                    <path d="M245.977,377.373C283.989,435.188 288.386,494.341 292.023,564.297C280.817,568.633 267.256,537.729 223.538,512.392C261.508,456.034 237.492,419.289 245.977,377.373Z" style="fill:rgb(235,235,235);"/>
                </g>
                <g transform="matrix(0.569643,-6.97611e-17,-6.17099e-17,-0.5039,448.357,632.4)">
                    <path d="M246.986,398.157C273.094,454.676 268.46,496.585 288.554,568.333C277.347,572.668 264.274,540.953 220.557,515.615C258.526,459.258 238.501,440.074 246.986,398.157Z" style="fill:rgb(235,235,235);"/>
                </g>
                <g transform="matrix(-0.469801,-5.75341e-17,5.0894e-17,-0.415581,295.189,559.565)">
                    <path d="M245.977,377.373C283.989,435.188 283.873,503.733 287.51,573.688C260.925,557.355 243.524,529.149 223.636,513.281C261.605,456.923 237.492,419.289 245.977,377.373Z" style="fill:rgb(235,235,235);"/>
                </g>
                <g transform="matrix(0.469801,-5.75341e-17,-5.0894e-17,-0.415581,509.943,559.621)">
                    <path d="M236.056,397.53C274.069,455.345 275.329,505.553 278.966,575.509C252.381,559.175 239.443,533.703 219.555,517.835C257.524,461.477 227.571,439.446 236.056,397.53Z" style="fill:rgb(235,235,235);"/>
                </g>
                <g transform="matrix(-0.378568,-4.63612e-17,4.10106e-17,-0.334877,476.262,617.001)">
                    <path d="M245.977,377.373C269.334,435.188 263.826,495.024 284.619,564.98C258.033,548.646 228.791,565.134 208.903,549.266C229.075,494.849 225.591,420.601 245.977,377.373Z" style="fill:rgb(235,235,235);"/>
                </g>
                <g transform="matrix(0.378568,-1.4294e-17,-5.51938e-17,-0.219063,328.869,551.624)">
                    <path d="M245.977,377.373C269.334,435.188 263.826,495.024 284.619,564.98C258.033,548.646 228.791,565.134 208.903,549.266C229.075,494.849 225.591,420.601 245.977,377.373Z" style="fill:rgb(235,235,235);"/>
                </g>
                <g transform="matrix(0.378568,-2.91296e-17,-4.86321e-17,-0.272643,311.36,581.896)">
                    <path d="M245.977,377.373C269.334,435.188 262.665,485.835 283.458,555.791C260.376,546.496 230.618,568.805 208.903,549.266C229.075,494.849 225.591,420.601 245.977,377.373Z" style="fill:rgb(235,235,235);"/>
                </g>
            </g>
        </g>
        <g id="Face" transform="matrix(1,0,0,1,-4,-25.7344)">
            <path d="M159.961,300.546C174.853,314.496 246.914,360.081 248.645,369.505C250.377,378.93 337.874,408.914 400.087,408.057C526.379,410.332 510.899,391.932 544.038,371.22C582.718,347.045 605.523,332.269 640.083,300.393C641.072,288.19 634.557,292.284 628.389,271.955C617.369,235.635 640.065,210.611 617.107,226.899C612.711,230.018 605.043,165.538 601.231,160.761C589.524,147.835 557.708,123.51 536.877,120.616C523.86,118.808 518.382,124.649 509.182,135.545C503.449,142.334 511.635,103.085 505.643,103.414C479.443,104.853 465.379,126.068 456.115,141.864C449.146,153.748 428.23,89.296 428.61,90.192C437.356,110.795 410.532,142.845 414.421,164.515C391.996,139.998 378.35,81.703 378.516,87.576C379.029,105.678 302.434,153.45 315.803,146.924C320.599,144.583 327.244,100.593 315.523,104.351C297.756,110.049 278.546,111.831 274.212,131.54C270.747,147.294 276.098,153.678 266.561,138.521C255.447,120.859 249.655,126.307 250.677,115.223C250.979,111.944 218.949,137.205 200.404,160.23C193.171,169.874 209.391,224.818 199.733,210.598C189.253,195.168 183.669,230.652 175.921,268.928C173.613,280.33 160.292,289.474 159.961,300.546Z" style="fill:rgb(183,231,234);"/>
            <g id="Nostrils">
                <g transform="matrix(0.0911619,0.0488159,-0.148736,0.277759,374.333,307.327)">
                    <ellipse cx="212.083" cy="156.852" rx="89.14" ry="90.798" style="fill:rgb(0,11,89);"/>
                </g>
                <g transform="matrix(0.0911619,-0.0488159,-0.148736,-0.277759,432.803,415.167)">
                    <ellipse cx="212.083" cy="156.852" rx="89.14" ry="90.798" style="fill:rgb(0,11,89);"/>
                </g>
            </g>
            <g id="Eyes">
                <g transform="matrix(0.642771,-0.344195,-0.476853,-0.890504,435.209,457.652)">
                    <ellipse cx="212.083" cy="156.852" rx="89.14" ry="90.798" style="fill:rgb(235,235,235);"/>
                    <clipPath id="_clip2">
                        <ellipse cx="212.083" cy="156.852" rx="89.14" ry="90.798"/>
                    </clipPath>
                    <g clip-path="url(#_clip2)">
                        <g transform="matrix(0.911459,-0.352294,-0.488074,-0.657896,65.3715,389.528)">
                            <ellipse cx="239.724" cy="240.567" rx="26.145" ry="27.107" style="fill:rgb(0,11,89);"/>
                        </g>
                    </g>
                </g>
                <g transform="matrix(0.642771,0.344195,-0.476853,0.890504,240.41,32.3011)">
                    <ellipse cx="212.083" cy="156.852" rx="89.14" ry="90.798" style="fill:rgb(235,235,235);"/>
                    <clipPath id="_clip3">
                        <ellipse cx="212.083" cy="156.852" rx="89.14" ry="90.798"/>
                    </clipPath>
                    <g clip-path="url(#_clip3)">
                        <g transform="matrix(0.911459,-0.352294,0.488074,0.657896,-90.4084,97.8005)">
                            <ellipse cx="239.724" cy="240.567" rx="26.145" ry="27.107" style="fill:rgb(0,11,89);"/>
                        </g>
                    </g>
                </g>
            </g>
        </g>
    </g>
</svg>
